<svg width="11" height="6" viewBox="0 0 11 6" fill="none" xmlns="http://www.w3.org/2000/svg">
<path d="M10.0382 1.18894L5.5984 5.84793C5.54554 5.90323 5.48829 5.9423 5.42662 5.96516C5.36496 5.98839 5.29889 6 5.22842 6C5.15794 6 5.09187 5.98839 5.03021 5.96516C4.96855 5.9423 4.91129 5.90323 4.85843 5.84793L0.40542 1.18894C0.282092 1.05991 0.220428 0.898618 0.220428 0.70507C0.220428 0.511521 0.286497 0.345623 0.418634 0.207374C0.55077 0.0691247 0.70493 4.53578e-07 0.881113 4.4512e-07C1.0573 4.36663e-07 1.21145 0.0691247 1.34359 0.207374L5.22842 4.27189L9.11324 0.207373C9.23657 0.0783411 9.38844 0.0138245 9.56885 0.0138245C9.74961 0.0138245 9.90606 0.0829492 10.0382 0.221198C10.1703 0.359447 10.2364 0.520737 10.2364 0.705069C10.2364 0.889401 10.1703 1.05069 10.0382 1.18894Z" fill="white"/>
</svg>
