<svg width="30" height="30" viewBox="0 0 30 30" fill="none" xmlns="http://www.w3.org/2000/svg">
<path d="M11.25 25.3125C11.25 25.6833 11.14 26.0459 10.934 26.3542C10.728 26.6625 10.4351 26.9029 10.0925 27.0448C9.74992 27.1867 9.37292 27.2238 9.00921 27.1515C8.64549 27.0791 8.3114 26.9005 8.04918 26.6383C7.78695 26.3761 7.60837 26.042 7.53603 25.6783C7.46368 25.3146 7.50081 24.9376 7.64273 24.595C7.78464 24.2524 8.02496 23.9595 8.33331 23.7535C8.64165 23.5475 9.00416 23.4375 9.375 23.4375C9.87228 23.4375 10.3492 23.635 10.7008 23.9867C11.0525 24.3383 11.25 24.8152 11.25 25.3125ZM21.5625 23.4375C21.1917 23.4375 20.8291 23.5475 20.5208 23.7535C20.2125 23.9595 19.9721 24.2524 19.8302 24.595C19.6883 24.9376 19.6512 25.3146 19.7235 25.6783C19.7959 26.042 19.9745 26.3761 20.2367 26.6383C20.4989 26.9005 20.833 27.0791 21.1967 27.1515C21.5604 27.2238 21.9374 27.1867 22.28 27.0448C22.6226 26.9029 22.9155 26.6625 23.1215 26.3542C23.3275 26.0459 23.4375 25.6833 23.4375 25.3125C23.4375 24.8152 23.24 24.3383 22.8883 23.9867C22.5367 23.635 22.0598 23.4375 21.5625 23.4375ZM26.8828 8.69531L23.7891 19.5234C23.6192 20.1104 23.2635 20.6265 22.7754 20.9941C22.2873 21.3618 21.6931 21.5612 21.082 21.5625H9.85547C9.24439 21.5612 8.65021 21.3618 8.16211 20.9941C7.67401 20.6265 7.31832 20.1104 7.14844 19.5234L4.05469 8.70703V8.68359L2.90625 4.6875H0.9375C0.68886 4.6875 0.450403 4.58873 0.274587 4.41291C0.0987721 4.2371 0 3.99864 0 3.75C0 3.50136 0.0987721 3.2629 0.274587 3.08709C0.450403 2.91127 0.68886 2.8125 0.9375 2.8125H2.90625C3.31348 2.81398 3.7093 2.94717 4.03457 3.19218C4.35985 3.4372 4.59712 3.78088 4.71094 4.17187L5.66016 7.5H25.9805C26.1257 7.49985 26.2689 7.53343 26.399 7.5981C26.529 7.66277 26.6422 7.75676 26.7297 7.87265C26.8172 7.98855 26.8766 8.12319 26.9031 8.26595C26.9297 8.40871 26.9227 8.5557 26.8828 8.69531ZM24.7383 9.375H6.19922L8.95313 19.0078C9.00918 19.2038 9.1276 19.3762 9.29042 19.4988C9.45325 19.6215 9.65162 19.6877 9.85547 19.6875H21.082C21.2859 19.6877 21.4842 19.6215 21.6471 19.4988C21.8099 19.3762 21.9283 19.2038 21.9844 19.0078L24.7383 9.375Z" fill="black"/>
</svg>
