<svg width="30" height="30" viewBox="0 0 30 30" fill="none" xmlns="http://www.w3.org/2000/svg">
<path d="M26.2852 17.6133C26.2248 17.4185 26.1032 17.2484 25.9386 17.1281C25.774 17.0078 25.575 16.9437 25.3711 16.9453L25.1133 16.9922C23.4348 17.4555 21.6634 17.4652 19.9799 17.0205C18.2964 16.5757 16.7609 15.6923 15.5303 14.4605C14.2996 13.2286 13.4177 11.6923 12.9746 10.0084C12.5314 8.32443 12.5429 6.55307 13.0078 4.875C13.0308 4.80703 13.0427 4.73581 13.043 4.66406C13.0541 4.51283 13.0279 4.36117 12.9667 4.22243C12.9055 4.08368 12.8112 3.9621 12.692 3.86836C12.5728 3.77462 12.4324 3.71159 12.2831 3.68482C12.1338 3.65806 11.9803 3.66837 11.8359 3.71484C9.8658 4.26706 8.07457 5.32548 6.64044 6.78481C5.20631 8.24415 4.17926 10.0535 3.66145 12.033C3.14364 14.0125 3.15313 16.093 3.68896 18.0677C4.22479 20.0423 5.2683 21.8423 6.71567 23.2885C8.16305 24.7347 9.96385 25.7767 11.9389 26.311C13.914 26.8452 15.9946 26.853 17.9736 26.3336C19.9527 25.8142 21.7612 24.7856 23.2194 23.3503C24.6776 21.915 25.7345 20.1229 26.2852 18.1523C26.3441 17.9775 26.3441 17.7881 26.2852 17.6133ZM15 24.8438C12.7547 24.8455 10.5763 24.0797 8.82605 22.6733C7.07583 21.2668 5.85901 19.3043 5.37744 17.1113C4.89588 14.9182 5.1785 12.6265 6.17844 10.6161C7.17838 8.60577 8.83553 6.99768 10.875 6.05859C10.6543 7.82721 10.8404 9.62286 11.419 11.3087C11.9976 12.9944 12.9535 14.5259 14.2138 15.7862C15.4741 17.0465 17.0056 18.0024 18.6913 18.581C20.3771 19.1596 22.1728 19.3457 23.9414 19.125C23.1485 20.8294 21.8864 22.2725 20.3028 23.2853C18.7192 24.2982 16.8798 24.8387 15 24.8438Z" fill="black"/>
</svg>
